<?xml version="1.0" standalone="no"?>
<!DOCTYPE svg PUBLIC "-//W3C//DTD SVG 20010904//EN"
 "http://www.w3.org/TR/2001/REC-SVG-20010904/DTD/svg10.dtd">
<svg version="1.0" xmlns="http://www.w3.org/2000/svg"
 width="700.000000pt" height="700.000000pt" viewBox="0 0 700.000000 700.000000"
 preserveAspectRatio="xMidYMid meet">
<metadata>
Created by potrace 1.14, written by Peter Selinger 2001-2017
</metadata>
<g transform="translate(0.000000,700.000000) scale(0.100000,-0.100000)"
fill="#000000" stroke="none">
<path d="M6268 4980 c-53 -28 -92 -92 -104 -168 -3 -21 -11 -41 -17 -47 -7 -5
-28 -30 -47 -55 -19 -24 -50 -58 -69 -75 -19 -16 -39 -35 -45 -41 -24 -23
-107 -66 -177 -90 -76 -26 -278 -75 -384 -93 -33 -6 -73 -13 -90 -16 -16 -3
-61 -10 -99 -15 -37 -6 -71 -12 -75 -14 -8 -5 -93 -16 -161 -21 -30 -2 -89 -8
-130 -12 -84 -9 -961 -9 -1143 0 -65 3 -121 8 -125 12 -3 3 -7 56 -8 118 -1
62 -2 118 -3 125 -1 7 -12 17 -26 22 -27 10 -32 18 -39 67 -5 40 6 49 67 57
55 8 99 23 108 37 3 6 2 32 -3 57 -5 26 -10 55 -11 65 -6 35 -36 59 -65 52
-15 -4 -43 -9 -62 -12 -19 -3 -51 -8 -70 -12 -34 -7 -124 -7 -145 0 -5 2 -24
0 -41 -3 -37 -8 -54 -41 -54 -107 0 -58 22 -83 74 -83 40 0 45 -4 50 -46 4
-38 -1 -45 -41 -61 -18 -8 -34 -19 -34 -25 -1 -6 -2 -61 -3 -123 -1 -64 -6
-117 -12 -123 -27 -27 -210 -30 -919 -16 -170 4 -452 9 -625 11 -173 3 -328 7
-345 10 -16 2 -111 4 -210 4 -99 0 -195 0 -214 1 -18 0 -44 -6 -57 -15 -32
-21 -93 -19 -154 5 -27 11 -50 17 -50 15 0 -3 -9 -1 -20 5 -11 6 -20 17 -20
25 0 23 -22 64 -38 70 -20 7 -118 -39 -130 -62 -5 -10 -13 -61 -17 -113 -3
-52 -7 -108 -9 -125 -6 -70 38 -114 114 -114 42 0 66 16 75 52 9 34 6 32 105
61 79 23 82 23 115 6 43 -22 106 -29 325 -36 96 -4 177 -8 179 -10 2 -2 -7
-18 -21 -36 -56 -74 -72 -120 -83 -248 -2 -30 -7 -66 -10 -80 -11 -54 -17
-280 -14 -585 3 -492 3 -523 -3 -633 -5 -99 -4 -106 29 -184 43 -107 73 -150
131 -193 112 -82 251 -128 431 -142 151 -13 926 -4 1151 13 111 8 958 8 1230
0 129 -4 303 -9 385 -12 83 -2 166 -7 185 -10 60 -9 430 -12 430 -3 0 5 6 9
14 9 22 0 107 40 156 73 59 40 94 81 124 142 73 153 96 265 103 515 12 402 5
707 -21 915 -3 22 -8 78 -11 125 -4 48 -17 117 -31 158 -36 107 -39 103 76 76
115 -27 198 -67 307 -147 113 -83 198 -201 252 -352 42 -114 106 -179 167
-167 47 9 98 116 110 230 2 26 6 54 9 62 6 21 11 80 32 325 13 162 8 384 -12
550 -2 17 -7 66 -10 110 -8 97 -38 216 -68 270 -21 36 -89 94 -112 94 -5 0
-27 -9 -47 -19z m83 -185 c15 -44 31 -105 34 -135 4 -30 11 -71 15 -90 10 -41
19 -106 26 -193 3 -34 7 -75 9 -92 6 -45 7 -288 1 -316 -3 -13 -8 -53 -11 -89
-3 -36 -7 -76 -9 -90 -2 -14 -6 -50 -10 -80 -16 -125 -37 -225 -50 -238 -39
-39 -136 191 -163 389 -14 106 -8 497 8 513 2 3 4 -82 3 -187 -2 -215 14 -380
45 -459 12 -31 41 -37 61 -13 13 15 9 46 -26 205 -12 52 -17 300 -6 300 13 0
21 -73 20 -189 -1 -79 2 -96 17 -107 46 -34 55 2 61 231 5 192 1 209 -55 207
l-32 -1 6 60 c3 32 12 94 20 136 11 68 11 80 -2 95 -9 10 -24 15 -39 12 -15
-3 -27 1 -30 9 -4 13 38 176 52 198 13 21 28 0 55 -76z m-2827 55 c53 -20 20
-47 -66 -54 -65 -6 -100 2 -96 21 2 8 6 14 10 15 4 0 29 6 55 13 61 17 66 17
97 5z m-62 -175 c6 -27 0 -38 -13 -29 -12 7 -12 54 0 54 5 0 11 -11 13 -25z
m2674 -102 c-3 -10 -7 -47 -10 -83 -3 -36 -8 -76 -11 -90 -6 -28 -18 -164 -18
-195 0 -11 3 -74 8 -140 10 -154 10 -194 -1 -205 -5 -5 -58 27 -129 81 -137
102 -213 136 -374 168 -116 23 -110 21 -171 71 -56 46 -89 63 -163 85 -54 16
-75 34 -42 36 8 1 18 2 23 3 4 1 23 5 42 9 19 4 46 9 60 12 14 3 45 8 70 11
268 31 578 134 661 220 36 37 64 45 55 17z m-2626 -33 c6 -8 10 -42 11 -75 0
-33 3 -73 5 -89 3 -16 -1 -47 -9 -70 -17 -50 -12 -110 13 -151 16 -27 19 -63
24 -395 7 -470 6 -443 19 -458 7 -9 22 -11 43 -7 19 3 35 1 39 -5 12 -19 1
-23 -96 -34 -30 -4 -88 -13 -129 -20 -67 -13 -76 -12 -87 2 -18 22 -17 24 19
47 l31 20 -2 220 c-8 582 -7 606 12 638 26 42 24 74 -8 136 -26 48 -28 63 -27
139 3 114 8 121 78 119 36 -2 58 -8 64 -17z m-2914 -171 c12 -19 8 -133 -5
-157 -22 -42 -36 -20 -37 59 -1 73 8 109 26 109 5 0 12 -5 16 -11z m127 -81
c12 -6 36 -14 52 -18 17 -3 30 -10 30 -15 0 -11 -101 -34 -115 -25 -16 10 -21
53 -7 62 16 10 15 10 40 -4z m967 -3 c342 -9 884 -17 1283 -19 336 -1 359 -2
369 -19 16 -30 1 -66 -32 -74 -17 -5 -78 -7 -138 -6 -334 6 -865 13 -1282 17
-415 4 -565 8 -760 21 -25 2 -69 4 -97 6 -41 2 -54 6 -58 21 -12 35 3 54 42
56 21 2 39 4 40 6 4 3 332 -1 633 -9z m2089 -21 c69 -3 398 -6 731 -8 433 -3
618 -7 650 -16 59 -16 167 -74 208 -114 19 -17 45 -50 58 -72 28 -48 84 -196
90 -237 2 -15 5 -44 8 -65 26 -180 32 -325 30 -692 -1 -299 -6 -419 -18 -439
-2 -3 -7 -40 -11 -81 -22 -240 -103 -359 -295 -435 l-65 -26 -265 6 c-146 4
-344 8 -440 10 -96 1 -299 6 -450 10 -363 9 -407 9 -735 1 -803 -21 -1183 -24
-1300 -12 -38 4 -90 9 -115 11 -70 7 -153 16 -179 20 -39 7 -162 70 -215 112
-34 26 -59 58 -83 105 l-34 67 -5 313 c-13 798 -6 1098 28 1208 24 76 122 190
164 190 22 0 17 -12 -31 -65 -58 -65 -93 -168 -103 -297 -7 -102 -7 -711 1
-1098 4 -226 7 -250 27 -298 27 -63 90 -121 175 -162 109 -52 171 -60 445 -54
681 14 2049 20 2350 11 585 -18 747 -19 804 -2 77 22 162 71 189 108 48 65 84
164 92 250 4 34 8 68 10 74 18 55 26 646 11 803 -4 47 -9 101 -11 120 -2 19
-6 73 -10 120 -3 47 -8 112 -11 145 -14 179 -94 302 -244 374 l-75 36 -760 0
c-418 1 -769 4 -780 8 -11 4 -26 16 -33 27 -10 17 -9 23 8 40 14 14 28 19 42
14 11 -3 77 -8 147 -10z m-1274 -148 c28 -3 208 -6 401 -6 205 0 363 -4 378
-10 14 -5 28 -20 31 -32 3 -13 6 -178 8 -368 l2 -345 -45 -22 c-25 -12 -49
-24 -55 -26 -12 -5 65 -154 83 -162 7 -2 58 6 114 20 56 14 131 27 167 30 164
14 163 13 159 114 -3 84 0 82 -80 66 l-36 -7 -8 49 c-4 26 -8 190 -8 364 -1
264 2 319 14 334 14 16 33 17 275 10 251 -7 660 -9 1025 -5 96 1 185 0 196 -3
78 -19 191 -115 231 -197 20 -42 34 -105 48 -225 3 -27 10 -84 16 -125 30
-235 32 -717 5 -920 -19 -143 -33 -196 -67 -265 -45 -92 -126 -136 -280 -153
-46 -5 -300 -7 -564 -4 -671 7 -1188 7 -1335 -2 -69 -4 -341 -10 -605 -12
-264 -3 -502 -6 -530 -6 -43 -1 -75 2 -185 17 -80 10 -130 17 -155 21 -50 8
-132 53 -158 87 -55 72 -58 91 -62 392 -2 154 -6 298 -9 320 -6 42 -7 322 -2
535 6 242 21 324 70 395 43 62 139 132 197 144 38 8 696 5 764 -3z"/>
<path d="M4995 4090 c-16 -4 -40 -12 -52 -19 -31 -16 -95 -103 -133 -179 -17
-35 -36 -62 -42 -60 -6 2 -35 47 -63 99 -59 107 -90 130 -173 131 -63 0 -103
-21 -144 -77 -18 -24 -38 -46 -44 -48 -6 -3 -54 17 -107 44 -52 27 -108 51
-124 54 -15 3 -50 11 -78 18 -27 8 -79 15 -115 16 -56 1 -72 -3 -117 -28 -55
-32 -83 -66 -101 -120 -17 -48 -15 -68 9 -116 l21 -43 -47 -122 c-46 -117 -50
-132 -46 -172 1 -21 38 -33 55 -18 8 6 17 23 20 38 11 43 78 214 97 246 20 32
16 50 -17 86 -33 37 -38 69 -15 107 39 63 122 82 246 58 91 -19 251 -98 269
-134 25 -48 0 -114 -69 -184 -96 -99 -97 -103 -44 -228 27 -63 31 -82 26 -132
-6 -69 -39 -118 -103 -154 -49 -28 -66 -25 -282 39 -36 10 -45 10 -52 -1 -14
-23 -1 -38 55 -65 118 -55 249 -72 313 -39 40 21 106 95 131 146 29 60 22 132
-28 254 l-21 53 66 75 c42 49 73 75 86 75 46 0 87 -67 140 -225 63 -191 109
-287 150 -316 44 -32 123 -37 165 -10 53 33 68 66 65 138 -1 43 2 63 10 63 6
0 40 -27 74 -60 112 -108 173 -117 277 -40 75 55 107 100 107 145 -1 50 -32
76 -99 84 -39 5 -73 16 -98 33 -58 40 -173 153 -173 171 0 28 18 64 58 117 81
106 110 198 81 253 -10 19 -39 43 -46 40 -2 -1 -15 2 -30 6 -16 4 -41 5 -58 1z
m49 -83 c28 -20 13 -65 -51 -154 -82 -115 -102 -189 -65 -244 24 -36 190 -178
226 -195 17 -7 48 -16 68 -19 21 -3 40 -10 43 -16 4 -5 -17 -32 -46 -59 -81
-76 -98 -73 -207 41 -117 122 -182 153 -218 105 -13 -19 -10 -109 6 -152 16
-42 -2 -94 -41 -115 -48 -25 -126 108 -185 316 -42 153 -68 197 -129 227 -47
23 -49 27 -46 93 6 114 127 188 193 118 34 -37 72 -99 89 -147 18 -49 63 -89
93 -81 29 9 68 56 107 129 54 102 104 161 140 165 3 1 13 -5 23 -12z"/>
<path d="M1814 4041 c-49 -16 -84 -40 -84 -58 0 -4 -18 -34 -40 -67 -22 -32
-41 -66 -41 -75 -7 -89 -6 -93 22 -126 33 -37 35 -55 13 -145 -27 -116 -37
-293 -19 -352 18 -63 41 -78 122 -83 123 -7 195 30 208 105 9 55 29 50 51 -12
19 -52 71 -116 111 -137 75 -38 277 37 296 111 4 15 -12 39 -63 93 -39 41 -72
85 -75 102 -3 15 -15 52 -27 82 -20 52 -20 55 -4 85 10 17 35 51 56 75 l38 44
49 -24 c42 -21 56 -37 109 -124 34 -55 91 -145 127 -200 36 -55 72 -117 80
-137 8 -20 24 -41 34 -46 25 -14 88 -6 131 15 36 18 40 23 62 78 l12 30 37
-42 c41 -47 74 -63 114 -56 35 7 67 47 60 74 -8 29 -27 33 -57 14 -30 -20 -39
-16 -73 38 -31 49 -99 112 -122 112 -26 1 -38 -26 -43 -98 -3 -37 -8 -70 -11
-73 -4 -4 -23 -7 -42 -8 -33 -1 -39 3 -62 44 -14 25 -44 74 -68 110 -38 59
-72 116 -150 254 -23 41 -37 53 -90 77 -35 15 -65 34 -67 41 -19 55 78 208
131 208 27 0 61 -38 136 -153 37 -56 81 -117 98 -134 37 -40 77 -43 104 -10
42 52 49 52 92 8 72 -74 111 -50 151 94 60 219 59 218 115 205 35 -8 65 6 65
30 0 18 -33 40 -61 41 -16 1 -35 2 -41 3 -45 7 -98 -42 -98 -91 0 -10 -7 -36
-14 -58 -8 -22 -17 -58 -20 -80 -8 -51 -26 -95 -38 -95 -6 0 -24 11 -40 25
-17 14 -43 32 -59 40 -27 15 -29 14 -60 -25 -18 -22 -36 -40 -40 -40 -4 0 -39
46 -78 103 -143 209 -190 239 -281 178 -25 -16 -58 -50 -74 -75 -27 -42 -46
-58 -46 -38 0 5 -26 36 -58 69 -52 55 -65 62 -123 76 -93 21 -290 20 -355 -2z
m321 -65 c70 -15 109 -48 145 -122 34 -69 20 -150 -37 -210 -63 -67 -67 -100
-27 -220 30 -88 50 -122 106 -177 22 -20 36 -41 33 -46 -7 -12 -110 -51 -134
-51 -24 0 -82 64 -102 115 -9 22 -25 59 -34 82 -21 51 -69 79 -108 64 -21 -8
-28 -21 -37 -68 -24 -115 -40 -133 -125 -133 -46 0 -74 18 -76 48 -5 80 -3
135 8 182 7 30 15 73 19 95 3 22 10 62 15 89 15 83 12 104 -22 136 -39 35 -40
64 -6 122 43 73 49 78 117 92 59 13 207 14 265 2z"/>
<path d="M2013 3868 c-58 -15 -82 -109 -47 -184 13 -27 23 -34 57 -39 53 -8
90 6 132 51 37 39 38 54 5 112 -29 52 -88 76 -147 60z m74 -97 c9 -13 8 -20
-4 -33 -23 -26 -51 -22 -59 7 -12 48 32 66 63 26z"/>
<path d="M4037 3873 c-20 -5 -52 -70 -62 -126 -8 -43 13 -67 61 -67 56 0 111
27 129 66 14 30 14 36 0 64 -25 48 -80 75 -128 63z m48 -83 c4 -6 1 -17 -5
-26 -10 -11 -16 -12 -26 -3 -11 9 -11 15 -3 25 14 17 25 18 34 4z"/>
<path d="M3258 3688 c-23 -18 -38 -104 -38 -213 0 -89 1 -95 20 -95 27 0 41
38 45 120 1 36 6 86 10 112 7 46 0 88 -14 88 -4 0 -14 -6 -23 -12z"/>
<path d="M3917 3482 c-45 -10 -70 -153 -34 -189 9 -9 33 -16 54 -16 39 0 123
36 123 52 0 5 3 16 6 25 3 9 -11 32 -37 61 -48 51 -84 74 -112 67z m57 -101
c22 -24 13 -41 -20 -41 -18 0 -24 5 -24 23 0 41 17 48 44 18z"/>
<path d="M2493 3063 c-12 -12 -25 -29 -31 -39 -10 -18 -12 -17 -39 9 -50 47
-64 35 -93 -78 -23 -89 -45 -122 -67 -103 -8 7 -35 52 -59 100 -24 48 -48 88
-52 89 -4 0 -14 2 -23 4 -9 1 -20 0 -25 -4 -14 -9 -144 -212 -144 -223 0 -19
21 -48 35 -48 8 0 28 14 45 30 19 18 39 29 48 26 9 -2 32 -7 50 -11 18 -4 41
-16 52 -27 15 -16 30 -20 80 -19 34 0 64 2 68 5 4 2 16 28 27 56 21 56 37 69
59 51 11 -9 19 -9 35 1 12 7 21 16 21 20 0 5 6 8 13 8 8 0 19 -21 26 -52 14
-64 20 -75 46 -80 13 -2 24 6 33 26 13 26 12 38 -14 130 -16 55 -38 111 -50
125 l-21 24 -20 -20z m-365 -175 c-6 -18 -28 -21 -28 -4 0 9 7 16 16 16 9 0
14 -5 12 -12z"/>
<path d="M2731 3066 c-6 -8 -23 -56 -37 -108 -15 -51 -32 -104 -39 -118 -9
-17 -10 -31 -4 -43 23 -40 86 -6 95 52 3 21 9 43 13 50 11 17 118 -45 136 -80
26 -48 65 -57 85 -19 7 13 3 37 -16 87 -14 37 -32 88 -40 113 -14 46 -42 74
-62 61 -6 -3 -15 -19 -21 -34 -14 -37 -26 -34 -48 11 -20 40 -43 51 -62 28z"/>
<path d="M5020 3059 c-44 -27 -63 -47 -85 -89 -69 -134 89 -260 213 -169 23
17 42 34 43 37 0 4 2 16 4 27 14 81 12 95 -15 139 -45 70 -102 90 -160 55z
m80 -79 c12 0 30 -68 23 -86 -3 -8 -18 -21 -32 -29 -65 -33 -110 47 -56 101
15 15 32 23 41 20 9 -3 20 -6 24 -6z"/>
<path d="M1750 3059 c-44 -12 -80 -52 -80 -89 0 -37 21 -57 73 -70 60 -15 87
-28 87 -41 0 -13 -27 -8 -78 12 -39 16 -67 3 -67 -31 0 -37 43 -61 121 -67 61
-4 72 -2 97 17 66 52 47 123 -41 156 -26 10 -51 21 -57 26 -17 16 15 26 45 15
54 -21 75 34 27 68 -24 17 -74 18 -127 4z"/>
<path d="M3333 3049 c-60 -29 -88 -78 -87 -151 1 -46 6 -63 23 -82 26 -27 87
-46 136 -41 133 12 165 220 42 276 -53 24 -63 24 -114 -2z m99 -86 c20 -18 24
-64 8 -94 -8 -14 -21 -19 -55 -19 -34 0 -47 5 -55 19 -37 70 44 146 102 94z"/>
<path d="M4399 3046 c-86 -26 -128 -85 -97 -135 9 -15 9 -26 0 -45 -10 -23 -8
-29 14 -50 43 -39 95 -51 158 -37 62 14 85 34 92 82 5 28 1 39 -21 62 -15 15
-38 28 -51 28 -13 1 -28 3 -34 4 -5 1 -14 3 -20 4 -5 0 -10 6 -10 12 0 7 14 8
39 4 34 -6 41 -3 51 15 24 45 -47 78 -121 56z m66 -177 c15 -15 -15 -30 -45
-23 -35 8 -48 23 -30 35 16 10 59 3 75 -12z"/>
<path d="M4761 3049 c-24 -3 -63 -4 -86 -2 -51 6 -79 -15 -66 -50 6 -16 18
-23 45 -25 20 -2 39 -9 42 -15 2 -7 5 -46 7 -88 3 -80 16 -109 47 -109 33 0
43 26 36 94 -3 36 -9 72 -12 80 -8 22 15 48 36 41 10 -3 29 0 44 6 48 22 25
81 -30 76 -10 -1 -39 -4 -63 -8z"/>
<path d="M3644 3036 c-37 -16 -54 -57 -44 -103 4 -17 3 -37 -1 -45 -14 -21
-11 -35 16 -66 15 -18 39 -33 62 -37 119 -24 158 -6 158 74 0 68 -25 94 -92
95 -35 1 -48 5 -48 16 0 11 10 14 42 12 35 -3 42 0 48 18 4 12 2 27 -3 32 -17
17 -104 20 -138 4z m100 -152 c22 -8 20 -34 -1 -35 -45 -3 -58 4 -50 26 7 16
25 19 51 9z"/>
<path d="M3978 3016 c-72 -99 -118 -180 -118 -207 0 -33 29 -35 55 -3 20 25
30 29 81 31 33 2 68 5 79 7 22 4 65 -13 65 -25 0 -5 11 -16 25 -25 20 -13 28
-14 40 -4 20 17 19 46 -2 68 -10 10 -51 55 -92 100 -79 88 -104 99 -133 58z
m73 -115 c-15 -10 -48 -3 -58 12 -3 5 2 16 13 24 16 11 21 11 39 -7 16 -17 17
-22 6 -29z"/>
<path d="M3052 2844 c-19 -34 8 -71 42 -58 33 13 22 74 -14 74 -10 0 -23 -7
-28 -16z"/>
<path d="M4831 2719 c-11 -12 -21 -29 -24 -39 -7 -27 20 -60 49 -60 28 0 64
32 64 58 0 49 -57 75 -89 41z"/>
<path d="M5007 2713 c-8 -10 -17 -29 -19 -43 -2 -16 -11 -26 -27 -30 -32 -7
-83 -62 -111 -118 -13 -26 -38 -70 -57 -98 -40 -62 -43 -91 -9 -100 20 -5 33
2 64 35 38 40 40 41 110 41 89 0 114 -10 140 -54 24 -40 59 -48 86 -20 26 26
19 46 -45 119 -68 78 -119 144 -119 155 0 4 20 13 45 19 53 13 68 45 41 86
-20 30 -74 34 -99 8z m-33 -219 c9 -23 8 -24 -13 -24 -25 0 -38 20 -20 31 20
12 26 11 33 -7z"/>
<path d="M1758 2662 c-52 -3 -79 -27 -73 -66 2 -11 6 -73 10 -136 6 -116 13
-136 50 -150 39 -15 54 5 50 64 -5 63 3 70 58 51 36 -12 70 -42 104 -92 16
-24 66 -32 78 -12 11 17 -4 56 -35 91 -17 18 -30 35 -30 39 0 3 14 18 30 32
40 36 42 92 5 135 -35 42 -99 53 -247 44z m160 -87 c27 -7 30 -41 4 -49 -40
-13 -115 -16 -128 -5 -17 14 -18 56 -2 61 13 5 94 0 126 -7z"/>
<path d="M2815 2659 c-22 -5 -79 -11 -127 -13 -96 -5 -108 -9 -108 -35 0 -31
27 -43 93 -45 l62 -1 5 -87 c6 -97 23 -128 71 -128 37 0 44 26 25 85 -20 58
-20 119 -1 135 9 7 31 10 57 7 49 -6 68 5 68 39 0 39 -68 59 -145 43z"/>
<path d="M3570 2662 c-98 -5 -108 -19 -90 -125 6 -34 12 -73 14 -87 3 -14 5
-42 5 -62 1 -25 9 -46 22 -59 20 -20 22 -20 37 -5 9 9 17 34 18 56 1 52 15 66
61 63 51 -2 108 15 133 42 38 40 26 118 -23 149 -27 18 -115 32 -177 28z m122
-93 c28 -15 10 -38 -40 -52 -56 -17 -78 -12 -86 16 -9 35 -7 45 12 50 22 6 92
-3 114 -14z"/>
<path d="M2192 2643 c-24 -20 -27 -49 -16 -183 10 -126 8 -125 152 -128 135
-2 155 6 133 54 -11 25 -14 26 -89 21 -78 -4 -112 3 -112 26 0 27 20 34 60 24
67 -18 120 26 75 63 -15 13 -81 16 -114 5 -12 -4 -21 0 -25 11 -10 26 11 42
52 38 120 -11 164 -11 178 3 35 35 6 64 -68 68 -29 2 -87 7 -129 10 -64 5 -80
3 -97 -12z"/>
<path d="M3950 2650 c-20 -3 -41 -9 -47 -13 -7 -4 -10 -47 -7 -128 5 -195 4
-193 164 -187 123 4 150 13 150 49 0 30 -29 37 -128 32 l-94 -6 4 24 c3 21 9
24 50 27 50 3 74 25 62 56 -7 18 -5 17 -59 21 -22 1 -48 3 -57 4 -12 1 -18 9
-18 27 l0 26 99 -6 c107 -8 118 -4 107 39 -5 19 -14 25 -49 29 -76 10 -141 12
-177 6z"/>
<path d="M4375 2652 c-11 -2 -24 -8 -29 -13 -18 -16 5 -280 27 -307 6 -7 22
-12 36 -10 24 3 30 12 47 76 2 6 19 12 38 12 27 0 46 -10 89 -50 56 -51 74
-58 108 -40 27 15 24 34 -11 67 -16 15 -30 32 -30 37 0 4 14 24 31 43 25 29
29 40 23 66 -14 66 -52 99 -129 111 -51 9 -174 14 -200 8z m214 -92 c22 -11
28 -44 10 -55 -17 -11 -97 -20 -141 -16 -19 1 -40 54 -31 78 5 13 18 15 74 10
37 -3 77 -11 88 -17z"/>
<path d="M3282 2621 c-6 -16 -9 -31 -7 -33 3 -2 7 -33 10 -68 4 -35 8 -67 11
-72 10 -15 -16 -47 -44 -53 -38 -8 -80 9 -91 37 -5 13 -12 46 -15 73 -15 119
-17 125 -42 131 -14 4 -28 3 -32 -1 -4 -4 -7 -54 -7 -113 -1 -122 12 -156 66
-184 45 -23 127 -29 167 -12 17 7 41 28 52 46 18 28 20 42 15 98 -4 36 -7 83
-7 104 1 51 -13 76 -42 76 -18 0 -27 -8 -34 -29z"/>
</g>
</svg>
