<svg xmlns="http://www.w3.org/2000/svg" viewBox="0 0 337.24 550.62"><defs><style>.cls-1{fill:#ed2024;}</style></defs><g id="sello"><path class="cls-1" d="M208.23,252.26c1.08,1.32,2.13,2.67,3.26,3.95s1.94,1.36,3.34.24c2.11-1.68,4.15-3.44,6.24-5.15,1.62-1.33,3.26-2.65,4.92-3.94.52-.41,1.07-.79,1-1.54s-.69-1-1.37-1.19a7.91,7.91,0,0,1-4.62-3.78,24.55,24.55,0,0,1-2.59-6.25c-1.46-5.41-3-10.81-4.6-16.17A94.79,94.79,0,0,0,207,202.36a78.71,78.71,0,0,0-8.2-12.21,57.5,57.5,0,0,0-9.79-9.36,71.36,71.36,0,0,0-17.46-9.72,44.41,44.41,0,0,0-5.15-1.4c-6.75-1.84-13.62-2-20.54-1.48a11.45,11.45,0,0,0-1.9.39c-2.71.7-5.42,1.4-8.12,2.12-.58.15-1.15.31-1.7.5l-12.68,4.39a5.37,5.37,0,0,0-1.16.55c-1.3.86-2.59,1.75-3.88,2.64-.81.58-1,1.12-.7,1.75s1,.92,2,.48c4.34-2.06,9.06-2.73,13.64-3.93a6.9,6.9,0,0,1,1.93-.1c3.39.12,6.81.05,10.17.49,1.89.25,3.77-.12,5.59.3a57.5,57.5,0,0,1,5.55,1.74,71.18,71.18,0,0,1,11.65,5.57,53.91,53.91,0,0,1,5.62,4.08,106.4,106.4,0,0,1,10.87,8.89,29.9,29.9,0,0,1,3.64,4.3c2.75,4,5.44,8,8,12.13a28.26,28.26,0,0,1,2,4.56c1.71,4.31,3.48,8.59,5,13,1,2.84,1.66,5.79,2.43,8.71.37,1.4.58,2.85,1,4.25a15.53,15.53,0,0,0,2.64,5.66c.36.47.66,1,1,1.48Z"/><path class="cls-1" d="M217.68,301.84c2.68,3.6,5,7,7.62,10.14a39.3,39.3,0,0,0,4.35,4.09c2.2,2,4.37,4,6.64,5.9a13.52,13.52,0,0,0,3.15,1.91,23.43,23.43,0,0,0,7.1,2.14,5,5,0,0,0,1.44.1c2.31-.44,4.7-.66,6.81-1.83a8.49,8.49,0,0,0,2.32-1.72,4.23,4.23,0,0,1,2.06-1.16c.22-.07.62-.1.73,0,.79.92,1.33.27,1.85-.28q5.24-5.61,10.44-11.24a1.43,1.43,0,0,0,.42-.67.94.94,0,0,0-.23-.71.62.62,0,0,0-.58-.09,3.33,3.33,0,0,0-.81.53c-.74.62-1.5,1.22-2.2,1.89-2.62,2.52-5.7,3-9.13,2.25a18.93,18.93,0,0,1-5-1.93,87.31,87.31,0,0,1-12.4-8.72c-4.4-3.51-7.38-8.09-10.48-12.62-2-3-6.43-9.46-7.46-14.89s-.69-9.2-3.26-9.69a34,34,0,0,0-5.76-1c-2.22,0-4.64.79-5.41,2s-4.27,6.73-2.77,15.67c.88,2.14,1.84,4.25,2.72,6.4C211.93,293.3,215.27,297.52,217.68,301.84Z"/><path class="cls-1" d="M17.28,40c.13,3.45.3,6.9.37,10.35a42.32,42.32,0,0,0,1.47,8.58c.58,2.59.6,2.59-1.73,4a2.53,2.53,0,0,1-1.18.38,2.09,2.09,0,0,0-1.7.77c-.36.43-.65.47-1,0-.23-.35-.53-.67-.8-1a2.65,2.65,0,0,0-2.93-.88C7.22,63,5,64.33,3.89,67c-.79,2-.5,2.22,1.6,2.2,1.81,0,2.54-.69,3.14-2.48a3.54,3.54,0,0,1,.45-1,1,1,0,0,1,1.53-.4c.05,0,.1,0,.15.06,1.47,1,2.87,1.11,4.15-.32,1.68-.3,2.92-1.45,4.32-2.3.63-.38.84-.08,1,.46q1,2.82,2.07,5.61a28.11,28.11,0,0,0,3,6.6c.82,1.16,1.2,1.29,2.38.6.93-.54,1.06-.86.65-2-.84-2.27-1.75-4.53-2.58-6.8q-2-5.62-4-11.27a6.5,6.5,0,0,1-.43-1.88A47.53,47.53,0,0,0,20.1,44c-.32-1.26,0-2.68,0-4a16.27,16.27,0,0,0-.32-2.87A1.15,1.15,0,0,0,18.38,36c-.7.15-.92.66-.95,1.31,0,.86-.11,1.71-.17,2.56Z"/><path class="cls-1" d="M81.51,199c-1.55,1.16-3.11,2.31-4.65,3.48a7.74,7.74,0,0,0-1.06,1c-2.56,2.9-5.21,5.74-7.62,8.77a41,41,0,0,0-3.89,6.13c-1.94,3.61-1.47,8.15-.49,5.83,1.09-2.57,2.46-5,3.79-7.48,2-3.65,5-6.45,7.56-9.63,2.2-2.74,5.14-4.56,7.78-6.75a4.09,4.09,0,0,0,1-1,1.24,1.24,0,0,0,0-1.14,1.3,1.3,0,0,0-1.12-.18,6.39,6.39,0,0,0-1.36.87Z"/><path class="cls-1" d="M45.77,26.2l-.81.54a1.8,1.8,0,0,0-.85,2.08c.09.37.09.76.21,1.12.22.61.07.86-.54,1.21-1.07.6-2,1.47-3,2.17-1.69,1.16-3.43,2.24-5.12,3.4a3.59,3.59,0,0,0-1.08,1.15,1,1,0,0,0,.21,1,1,1,0,0,0,1-.13c2.09-2.08,4.83-3.22,7.13-5a1.07,1.07,0,0,1,.59-.22c1.59,0,2.52-1.07,3.45-2.12.36-.41.69-.83,1-1.24a8.26,8.26,0,0,1,5.44-2.53A3.18,3.18,0,0,1,54.9,28c.24.1.4.36.6.54.4.35.86.53,1.31.16a1.09,1.09,0,0,0,.27-1.45,8.09,8.09,0,0,0-2.55-3.09A4.17,4.17,0,0,0,50.92,24,51.48,51.48,0,0,0,45.69,26Z"/><path class="cls-1" d="M53.8,46.5c-.18.12-.35.25-.54.36-1.91,1.1-2.34,2.82-2,4.85.22,1.38.22,1.38-.92,2.08a4.36,4.36,0,0,0-.65.48,30.29,30.29,0,0,1-5.92,4.18c-1,.56-1.44,1.33-1.16,2.22a1.12,1.12,0,0,0,.71.73,1,1,0,0,0,.79-.55c.1-1,.81-1.31,1.49-1.75,1.13-.73,2.21-1.53,3.34-2.24.91-.57,1.86-1,2.79-1.57,1.27-.71,2.14-1.57,1.76-3.23-.21-.92.5-1.61,1.05-2.27a4.41,4.41,0,0,1,4.92-1.46c2.91,1.38,6.22,6.18,8,5.34,1.18-.57-2.8-4.88-3-5.08a17.07,17.07,0,0,0-2.7-3A5.14,5.14,0,0,0,57,45a31.83,31.83,0,0,0-3.24,1.38Z"/><path class="cls-1" d="M217.29,335.73c-.89-1.35-1.78-2.69-2.69-4a2.94,2.94,0,0,0-.66-.7,1,1,0,0,0-1.42.23c-.43.52-.32,1,.27,1.33s.94.73,1.43,1.05a6.5,6.5,0,0,1,2.06,2.44,13.31,13.31,0,0,0,1.69,2.33c1.51,1.75,3,3.53,4.64,5.17a20.84,20.84,0,0,0,4.4,3.75,12.91,12.91,0,0,0,5.5,1.61c2.43.12,5,0,7.21-1.31,3.14-1.91,5.34-4.5,5.41-8.42a2.68,2.68,0,0,0,0-.8c-.05-.17-.31-.44-.4-.41a.86.86,0,0,0-.54.42,2.58,2.58,0,0,0-.11,1,7.43,7.43,0,0,1-2.23,5.22c-2.71,3.1-6.18,3.63-10,2.79-.58-.13-1.14-.35-1.72-.47a9.37,9.37,0,0,1-5-2.86c-2-2.09-4.16-4.08-6.21-6.14a26.91,26.91,0,0,1-1.74-2.1Z"/><path class="cls-1" d="M192.62,308a2,2,0,0,0,.12.72.91.91,0,0,0,.57.25c3.61.56,6.28,2.59,8.58,5.31a60.23,60.23,0,0,1,5.86,7.92c.77,1.3,1.62,2.55,2.39,3.86.67,1.15,1.61,2.18,1.72,3.61,0,.15.32.42.4.39s.55-.29.54-.44a3.17,3.17,0,0,0-.25-1.55c-3.37-5.46-6.43-11.12-10.62-16a12.5,12.5,0,0,0-6.32-3.68,13.62,13.62,0,0,0-1.9-.39A7.21,7.21,0,0,0,192.62,308Z"/><path class="cls-1" d="M17.28,40l0-.1a.89.89,0,0,0-1.47-.29c-.4.28-.81.54-1.21.81-.78.55-1.53,1.22-2.62.76a.77.77,0,0,0-.62.09c-.61.37-1.07.14-1.6-.24a3.92,3.92,0,0,0-5.27.06A11.08,11.08,0,0,0,1,45.88a2.31,2.31,0,0,0-.16.78c0,.44,0,1,.57,1a1.21,1.21,0,0,0,.86-.51c.72-1,1.34-2.08,2.05-3.09a7.88,7.88,0,0,1,1.38-1.56A1.53,1.53,0,0,1,8.34,43a.71.71,0,0,0,1,.45c1.2-.28,2.41-.48,3.61-.75a3.69,3.69,0,0,0,1.18-.47C15.19,41.52,16.23,40.76,17.28,40Z"/><path class="cls-1" d="M270.65,477.71c1-.85,2.08-1.7,3.14-2.54a1.14,1.14,0,0,0,.45-1.4c-1-3.24-1.11-3-3.59-1.44a7,7,0,0,0-1.45,1.27c-.65.74-.62,1,.27,1.4.63.3.6.51.13.88s-1.07.63-1.17,1.42-.73.47-1.19.44-1.08-.26-1.16.44.54.68,1,.77a2.67,2.67,0,0,0,2.16-.41A10.07,10.07,0,0,1,270.65,477.71Z"/><path class="cls-1" d="M250.3,481a.77.77,0,0,0-.14.71.83.83,0,0,0,.65.28,2.39,2.39,0,0,0,.92-.28,2.94,2.94,0,0,1,2.18-.27,2.72,2.72,0,0,0,2.6-.94.57.57,0,0,0-.34-1.07,9.71,9.71,0,0,0-2.39-.21A6.91,6.91,0,0,0,250.3,481Z"/><path class="cls-1" d="M201.63,417.53c.13-.28.39-.58.32-.73-.41-.9.28-1.39.65-2a3.79,3.79,0,0,0,.54-1c.08-.3.08-.8-.11-1-.41-.37-.78-.07-1,.33-.11.18-.24.36-.34.55-.44.76-.88,1.4-1.94,1.41a2,2,0,0,0-1.24.88c-.53.73-.15,1.28.78,1.32.47,0,.94.11,1.41.15C201,417.52,201.27,417.52,201.63,417.53Z"/><path class="cls-1" d="M218,409.17c.6-.19,1.21-.34,1.8-.57.27-.1.69-.39.67-.53a1.44,1.44,0,0,0-.55-.84c-.62-.43-1.62-.25-1.92-1.26,0-.09-.69-.11-1,0a1,1,0,0,0-.72,1.27,2.5,2.5,0,0,1,.05,1.53,1.4,1.4,0,0,0,.35,1.09c.12.12.65-.13,1-.25.15-.05.25-.2.38-.3Z"/><path class="cls-1" d="M207.25,415.65c.05-.1.21-.27.17-.37-.37-.85.26-1.53.37-2.29a1.34,1.34,0,0,0-.34-1.1c-.54-.33-.84.17-1.08.61a3.11,3.11,0,0,0-.26.59,1.32,1.32,0,0,1-1.2,1.07,2.35,2.35,0,0,0-1.2.72,1.06,1.06,0,0,0-.17,1,1,1,0,0,0,.89.41C205.36,416.13,206.28,415.87,207.25,415.65Z"/><path class="cls-1" d="M213.72,411.32c-.66-.39-.9-.78-.76-1.41a.66.66,0,0,0-.68-.87c-.48,0-1,.23-.87.7.19.88-.46,1-.9,1.48a2.63,2.63,0,0,0-.57,1.38c0,.19.31.54.56.65s.54-.12.64-.3a1.18,1.18,0,0,1,1.73-.58c.22.1.74,0,.82-.13A2.2,2.2,0,0,0,213.72,411.32Z"/><path class="cls-1" d="M188.54,316.31a15,15,0,0,0-.64-1.48.89.89,0,0,0-.6-.34c-.08,0-.3.31-.31.49a4.68,4.68,0,0,0,3.23,4.18,2.37,2.37,0,0,0,1.24-.09c.23-.08.33-.48.49-.73-.2-.13-.4-.36-.61-.37A3.31,3.31,0,0,1,188.54,316.31Z"/><path class="cls-1" d="M12.29,47.84c-.6.44-.74,1-.37,1.51s1.33.85,1.69.61.29-1.2-.24-1.87C13,47.65,12.66,47.56,12.29,47.84Z"/><path class="cls-1" d="M283.2,492.89s44.15,47.73,45.88,49,5,1.22,7.39,3.36-1.13,6.87-4.28,4.86-1.48-4.42-3.42-7.32-46.11-49.5-46.11-49.5Z"/><path class="cls-1" d="M226.06,184.17c-34.53,3.08-35.89,2.66-19.6,35.09C190,187,187.76,187.41,167.9,231c20-43.3,18.14-43.71-25.74-34.92,44-8.84,44-8.84,19.9-51.85,22.66,40.66,22.66,40.66,44.29-1.06C187.24,186.22,187.34,186.45,226.06,184.17Z"/><path class="cls-1" d="M118,171.78a17.46,17.46,0,0,0-3.68-1.62,5.53,5.53,0,0,0-2.37.18c-2.22.43-4.4,1-6.62,1.38-2.38.4-4.7.74-7.14,1.23C92.82,174,58.64,97.65,53.54,89S41.18,70.56,42,69.17c2.38-.63,5.79-2.31,5.79-5.33S44.66,56.65,42.86,53c-2.77-5.58-8.8-19.88-9.11-26.31a26.81,26.81,0,0,0-3.49-12.64c-1-1.74-3-3.26-4.47-5.15A14.91,14.91,0,0,0,22.08,5.6c-1.4-.92-2.74-1.92-4.09-2.9A13.6,13.6,0,0,0,10.5,0,8.5,8.5,0,0,0,5.64,1.58,16.14,16.14,0,0,0,2.45,4.29,8.37,8.37,0,0,0,.27,10.38c0,1.24.16,2.48.13,3.71a27.53,27.53,0,0,0,.89,5.57c.17,1,.26,1.85-.77,2.55a1.72,1.72,0,0,0,0,2.46c.22.21.79.37,1,.23.5-.36,1.12-.84,1.25-1.37A10.22,10.22,0,0,0,3,20.18a11.36,11.36,0,0,1,.47-5.25A4.35,4.35,0,0,1,4.69,13.1c1.48-1.22,2.18-.86,2.84.41a8.66,8.66,0,0,0,1,1.47,1.27,1.27,0,0,0,1.75.24,1.22,1.22,0,0,0,.51-1.55,6.53,6.53,0,0,0-.58-1.15c-.45-.74-.91-1.46-1.38-2.19A7.94,7.94,0,0,1,8,4.11a2.18,2.18,0,0,1,2.37-1.3A16.63,16.63,0,0,1,20.44,7.47a1.7,1.7,0,0,1,.24.39,2.42,2.42,0,0,1-.47,0c-1.09-.31-2.17-.65-3.27-.94a4.51,4.51,0,0,0-4.73,1.65,2,2,0,0,0,.32,3c1.05,1,1.88,2.21,3.31,2.78A1.91,1.91,0,0,0,18,14c1.08-.87,2.32-1.55,3.49-2.32a1,1,0,0,1,1.31.15,8.85,8.85,0,0,0,.93.91,4.6,4.6,0,0,0,1.91,1.05,1.88,1.88,0,0,1,1.64,1c2.87,5.06,1,8.2.69,12-.41,5.39-.57,9.31-.57,10,0,5.76,1.36,13.35,3.73,18.43,1.8,3.85,5.78,9,5.31,12S36,71.84,38.85,78,83.28,175,90.28,177.19A67.83,67.83,0,0,1,98,180a1.52,1.52,0,0,0,.64.17,1.41,1.41,0,0,0,.46,0h0c.37-.07.74-.17,1.1-.25a40,40,0,0,1,4.9-1c4-.35,7.51-2.18,11.19-3.53a8.72,8.72,0,0,0,1.09-.62,6.44,6.44,0,0,0,.91-.73A1.39,1.39,0,0,0,118,171.78Z"/><path class="cls-1" d="M213.87,392.5a1,1,0,0,0-.85-.18,3.43,3.43,0,0,0-1,.57c-.59.38-1.15.8-1.77,1.14-1.17.64-1.21.64-2-.4q-5.64-7.69-11.26-15.43c-.76-1.05-1.44-2.15-2.16-3.23l-.13.09-13.25-18.19c-.16-.22-.4-.43-.43-.67s0-.67.21-.77c2.93-1.6,5.09-4.11,7.52-6.32a35.15,35.15,0,0,1,3.15-2.24,4.8,4.8,0,0,0,1.22-1.05,17.48,17.48,0,0,1,4.65-4.22,9.76,9.76,0,0,0,.89-.7c.85-.73.93-1.1.42-2.09-.34-.67-.74-1.31-1.11-2-.67-1.2-1.09-1.33-2.31-.66s-2.25,1.27-3.38,1.9c-1.37.75-2.74,1.51-4.14,2.2a2.09,2.09,0,0,0-1.1,1.28,8.56,8.56,0,0,1-3,3.92c-1.83,1.33-3.68,2.64-5.53,3.95-1,.69-1,.67-1.55-.35q-6.15-12.21-12.29-24.42-5.15-10.2-10.31-20.36c-3.84-7.61-7.65-15.24-11.49-22.84s-7.66-15.11-11.47-22.67S123.8,243.55,120,236s-7.66-15.11-11.48-22.67-7.6-15.14-11.41-22.7c-3-6-6.06-11.93-9.07-17.9q-5.15-10.19-10.25-20.39l-9.07-17.9-9-17.92q-4.52-9-9-17.91t-9-17.92c-.22-.44-.45-.87-.67-1.29-2-3.88-2-3.88-2.31-8.27A14.49,14.49,0,0,0,38.43,69c0-.27-.44-.48-.67-.72-.16.25-.43.49-.46.75,0,.53.07,1.07.05,1.61A18.39,18.39,0,0,0,39.82,80c5.55,10.73,11,21.54,16.4,32.33L72,143.54Q78.88,157.28,85.78,171q7.55,15,15.12,29.89T116,230.83q6.35,12.57,12.72,25.12c4.62,9.15,9.2,18.31,13.82,27.46,3.81,7.57,7.66,15.11,11.47,22.67,3.43,6.79,6.83,13.6,10.26,20.39s6.82,13.47,10.23,20.21c.15.31.31.61.46.91l.21.42c.32.61.63,1.23.92,1.86a1.11,1.11,0,0,1,.13.56c.74,2.1.92,4.17-1,4.65-2.56.66-6.49-6.44-6.63-6.73q-4.08-8.27-8.13-16.56l-8-16.42q-4.07-8.28-8.11-16.57l-9.12-18.6-8-16.42-8-16.42q-4.62-9.45-9.25-18.89-4.53-9.22-9-18.46l-9.24-18.89q-4-8.2-8.06-16.41l-9-18.46q-4.64-9.45-9.26-18.89-4.52-9.23-9-18.46Q51.52,109.47,46.9,100c-3-6.15-6-12.33-9.07-18.44a24.75,24.75,0,0,1-2.51-8.28c-.39-3-.93-6-1.44-9-.08-.47.06-1.32-.68-1.24s-.43.84-.36,1.33C33.56,69,34.25,73.49,35.05,78a11.71,11.71,0,0,0,1.18,3Q42,92.84,47.82,104.68L58,125.45q4.56,9.3,9.1,18.61l9,18.45Q80.8,172,85.41,181.4T94.53,200l9.18,18.75q4.52,9.23,9,18.45,4,8.22,8,16.42l9.26,18.89q4.58,9.38,9.16,18.76t9.13,18.59l9.17,18.75q4.56,9.3,9.13,18.6c.18.37,5.47,11.57,2.84,11.28s-3.67-.66-5.44-4.41c-.17-.36-1-1.7-1.23-2.13q-4.51-9.49-9-19-5.1-10.76-10.21-21.49l-10.05-21.2q-5-10.61-10.07-21.19l-10.07-21.2q-5.55-11.7-11.11-23.39-5-10.59-10.06-21.2T82.17,182.09q-5-10.6-10.07-21.19Q67,150.14,61.89,139.41l-10-21.2q-5-10.6-10.07-21.2c-2.66-5.6-5.34-11.19-8-16.81A8.43,8.43,0,0,1,33.18,78c-.86-5-1.7-10-2.56-15a5.77,5.77,0,0,0-.31-1.24.57.57,0,0,0-.5-.28.58.58,0,0,0-.36.44,5.32,5.32,0,0,0,.11,1.12c.88,5.21,1.72,10.43,2.69,15.62a15.84,15.84,0,0,0,1.43,3.75q6.57,13.9,13.18,27.78,7.47,15.72,15,31.42,6.48,13.66,13,27.35,6,12.65,12,25.27t12,25.3q6,12.65,12,25.28,5.52,11.63,11,23.25,5,10.61,10.08,21.19T142,310.64q5.55,11.7,11.12,23.38c3,6.36,6,12.73,9.08,19.08.58.67,5.4,9.38,2.79,9.1s-2.67-.11-4.45-3.86c0-.11-6-12.75-8.06-17.25-.16-.35-.28-.71-.45-1-.26-.52-.06-.57.45-.61a5.7,5.7,0,0,0,1.64-.48c.14-.05.19-.33.28-.5a1.76,1.76,0,0,0-.56-.16c-.37,0-.76.2-1.1.11-.88-.22-1.89-.4-2.15-1.46-.21-.8-1.31-1.42-.56-2.46.06-.09-.14-.51-.3-.58a2.38,2.38,0,0,1-1.23-1.41q-6.25-13.5-12.56-27-6.54-14-13.08-28-6.08-13.06-12.14-26.12t-12.18-26.1q-6.52-14-13-28-6.08-13-12.18-26.1T61.22,145Q55.15,132,49,118.93q-6.52-14-13-28c-1.27-2.73-2.59-5.46-3.8-8.22a13,13,0,0,1-1-3.22c-.74-4.64-1.39-9.28-2.07-13.92-.06-.43-.13-.86-.2-1.28s-.12-.87-.63-.69c-.22.08-.34.58-.38.91a4,4,0,0,0,.12,1c.57,3.9,1.25,7.78,1.67,11.7A27.74,27.74,0,0,0,32.52,86c3.85,8.14,7.62,16.32,11.43,24.48Q50,123.57,56.13,136.61q5.59,12,11.19,24.06L77.71,183Q82.87,194,88,205.11L98.41,227.4q5.16,11.08,10.31,22.16L119,271.71,129.42,294q5.16,11.07,10.31,22.15,3.63,7.78,7.25,15.55c.38.82.37.82-.48.82a1.52,1.52,0,0,0-1.15,1.82c0,.06.37.05.49,0,1.45-1,1.9-.95,2.63.62L160.16,360a5.07,5.07,0,0,0,.44.87,1.41,1.41,0,0,1,.09,1.63c-.66,1.43-.21,2.19,1.31,2.24a1.41,1.41,0,0,1,1.21.6q6.12,7.75,12.27,15.48L183.53,391q4.14,5.19,8.27,10.38c.23.29.59.66.55.95-.11,1.06.78,1.18,1.35,1.58a.76.76,0,0,0,.72,0c1.06-.87,2.49-.36,3.64-1,.18-.1.67.4,1,.58a5.5,5.5,0,0,0,.72.23c0-.24.2-.55.1-.71-.3-.56,0-.76.42-1a11,11,0,0,0,2.44-1.23c.72-.58,1.66.16,2-.3s.38-1.24,1.1-1.6,1.27-.81,1.91-1.21,1.29-1,2.16-.24c.39.31.76-.1.62-.55-.22-.7.18-1,.64-1.29.71-.5,1.4-1,2.08-1.54a1.88,1.88,0,0,0,.64-.71A1,1,0,0,0,213.87,392.5Zm-19.7,9.06a1.2,1.2,0,0,1-1.35-.57l-7.44-9.38q-7-8.87-14.06-17.74l-7.21-9.11c-.41-.58-.39-.64.45-1,.34-.16.69-.31,1-.44,1.47-.54,1.49-.54,2.42.65q4,5.07,8,10.17,9.63,12.28,19.24,24.57C197.05,401,197.06,400.94,194.17,401.56Zm7.05-2.87c-.65.38-1.33.71-2,1-1.32.61-1.31.58-2.19-.54l-14-17.81h0l-11.51-14.61c-1-1.23-1.92-2.47-2.88-3.71-.34-.44-.27-.76.24-1,1.16-.58,2.31-1.17,3.44-1.79a1,1,0,0,1,1.31.21,10.11,10.11,0,0,1,.71.88q3.78,4.95,7.55,9.91L200.65,396c.29.39.6.77.87,1.17C202.19,398.12,202.19,398.14,201.22,398.69Zm5.65-2.94c-.69.29-1.33.71-2,1.05-1.69.83-1.7.83-2.81-.65-2.6-3.44-5.18-6.9-7.78-10.33q-9-11.91-18.11-23.81c-.46-.6-.91-1.21-1.32-1.84s-.47-.94.27-1.42c.9-.58,1.81-1.16,2.75-1.68,1.72-1,1.75-1,2.9.62q6.64,9.07,13.26,18.15,5.08,7,10.18,14c1,1.4,2,2.8,3,4.19C208.05,395.1,208,395.27,206.87,395.75Z"/><path class="cls-1" d="M331,405.9c-1-8.16-1.47-13-1.74-15.76h0c-.16-1.65-.32-3.3-.51-4.95a18.82,18.82,0,0,0-1-4.05q-1.72-4.89-3.64-9.69a56.14,56.14,0,0,0-2.52-5.59c-1.67-3.14-3.48-6.21-5.22-9.32-2-3.56-4.77-6.53-7.37-9.61A183,183,0,0,0,291,329.09c-1.49-1.32-2.95-2.68-4.46-4a11.26,11.26,0,0,0-1.84-1.29,4.93,4.93,0,0,0-5.49.24c-.86.55-3.07,2.29-3.4,2.46-2.74,1.49-4.06,4.07-5.22,6.77a4.09,4.09,0,0,0-.33,1.72,8.51,8.51,0,0,0,2.94,6.57c2.56,2.07,5.19,4.05,7.84,6a34.34,34.34,0,0,1,5.28,4.73c1.34,1.48,2.69,2.95,4.15,4.31,4.49,4.18,8.07,9.11,11.67,14,1.4,1.92,2.77,3.86,4.23,5.73a48.29,48.29,0,0,1,3.83,6.55,32.45,32.45,0,0,1,2.68,7.52h0c2.36,8.92,4.41,17.65,4.52,22.83s-3.75,16.76-4.54,19.15-3.18,6.36-1.59,11.12c1.08,3.25.56,4.66,1.59,4.77s4.54,2.62,7.26-3.86,3.64-4.08,7.05-18.17S332,414.05,331,405.9Z"/></g></svg>