<svg xmlns="http://www.w3.org/2000/svg" viewBox="0 0 342.43 886.31"><defs><style>.cls-1{fill:#ed2024;}.cls-2{fill:none;}</style></defs><g id="kuvat"><path class="cls-1" d="M190.73-24.61c0,41.53,0,210.52,0,210.52,3.41.07,7.5,2,8.14,2.33,0,0-.08-170.1-.12-210.75C198.06-19,190.73-24.61,190.73-24.61Z"/><path class="cls-1" d="M190.73,379.77c0,20.86,0,71.31,0,71.31l8.11,3.51c0-20.09,0-55.54,0-76C198.07,379.68,192.1,380.41,190.73,379.77Z"/><path class="cls-1" d="M190.73,575.22V737.88s1.31.91,8,5.24l-.14-164.52S192,575.68,190.73,575.22Z"/><path class="cls-1" d="M190.73,795.63c0,38.64,0,144,0,182.52h8c0-37.2-.09-146.69-.13-184.51Z"/><path class="cls-1" d="M182.25,538.83c3.57,2.69,8.14,3,10.92.13,7.71-8,35.72-35.14,30.48-55.69.35-4-11-14.59-12.29-15.2-3.11-1.42-19.4-9.54-25-11.1-4.52-1.26-17.85-14.21-18.92-15.39-1.67-1.86-6.47-1.26-12.82-.41-5.38,2.34-19.17,2.49-15.84,7.23.54.77,8.81,14.47,13.27,18,2.75,2.17,17.06,16,21.15,21.84,3.11,4.43,16.23,16.1,3,35C174.17,527,179.09,536.45,182.25,538.83Z"/><path class="cls-1" d="M173.82,332.74c-.31-1.63-.85-11.91-1.17-15.36-.08-.86-17.64-24.63-26.14-32.41s-42.31-30.68-52-32.59c2-1-30.92-2.58-42.71,2.25-1.68.69-10.54,3.87-12,5.32h0c-1.08,1-2.75,2.89-2.73,7.3,0,2.88.2,9,2.73,7.47,1.94-1.18,4.13-7.63,5-7.91h0c2.06-.65,4.78-1.68,8.53-2.73,9.76-2.74,20.84-1,21.85-.82,12,1.58,44.94,22.24,53.11,36.15a41.83,41.83,0,0,0,7.94,7.9c6.06,4.24,10,2.22,14.76,8.09,3.57,4.36,14.75,19.34,17.24,23.19,1,1.54,2.23,2.69,4.13,1.66S174.17,334.52,173.82,332.74Z"/><path class="cls-1" d="M207.16,757.47c-3.83-3.2-7.53-6.75-11.83-9.17-5-2.8-10.59-4.55-15.93-6.76-3.65-1.52-7.42-2.89-9.44-6.71-.81-1.54-1.5-3.17-2.44-4.64a19.18,19.18,0,0,1-3-11.28c.27-8.26.71-16.51,1.09-24.77h-.08c0-2.72.2-5.47,0-8.17a6.34,6.34,0,0,0-5.4-6c-3.19-.43-5.73,1-7.06,4.28a54.5,54.5,0,0,0-1.79,5.51c-1,3.29-1.35,6.84-2.87,9.84a46,46,0,0,0-4,12.77,5.07,5.07,0,0,1-1.15,2.82c-4,3.41-3.72,7.54-2.65,12.08a15.49,15.49,0,0,1,.13,6.36c-.82,4.25.86,7.38,5,8.49q8,2.14,16,4.41a11.18,11.18,0,0,1,1.89.89c6.2,3.06,12.18,6.74,18.65,9A44.51,44.51,0,0,1,198,766.13a8.45,8.45,0,0,0,4.62,2.09c2.25.22,2.39,1.12,1.94,2.91-.57,2.2-1,4.44-1.44,6.68-.07.4.28.89.44,1.34a8.24,8.24,0,0,0,.94-.82c3.24-3.61,4-8.18,4.52-12.71C209.31,762.82,209.75,759.63,207.16,757.47Z"/><path class="cls-1" d="M310.41,563.59a32.83,32.83,0,0,1-2.85-5c-.63-1.14-9.58-11.32-12.95-15.7-.68-.88-10.87-9.2-14.08-13.76-2.27-3.23-5.43-5.9-8.45-8.53s-33.22-21.79-35.47-23.17-4.94-.93-6.29,1.14-2.8,7.66-.72,9.32c1,.76,40.83,36.15,45.26,42.16a94.08,94.08,0,0,0,5.8,7.85,69.62,69.62,0,0,1,13.93,21.57c2.24,5.68-.34,16.69-.26,17.37.27,2.18.86,4.23,3.32,4.89,2.24.6,8.27-4.53,9.48-6.2.4-.56,7.47-10.09,8-15.86a57,57,0,0,1-1.11-7A15.08,15.08,0,0,0,310.41,563.59Z"/><path class="cls-1" d="M162.23,411a13.32,13.32,0,0,1-1.66-3.49c-1.28-4.31-2.46-8.66-3.62-13-1.08-4.05-2.28-8.07-3.06-12.17-.49-2.58-1.37-4.78-3.61-6.12-2-1.21.89-.59-1.2-1.67-3.18-1.64-17.14-6.89-20.26-3.59s-5.15,14.54-3.07,18.56c1.36,2.62,2.17,8.05,3.07,10.86,2.11,6.58,1.37,15.67,6,20.9,2.67,3,7.74,3.88,12.12,4.16,1.7.11,10.37-.89,13.2-2.45C164.25,420.76,165.12,415.37,162.23,411Z"/><path class="cls-1" d="M194.53,345.5c-1.21,3.42-2.4,6.86-3.85,10.19-.93,2.1-1,3.9.64,5.56a4,4,0,0,0,5.72.25,29.42,29.42,0,0,0,5.44-6.28c2-3.41,3-7.3,4.94-10.74,3.11-5.66,3.84-11.78,3.35-17.91-1.1-14-7.33-52.54-7.33-52.54s-1.37-7.94-7.26-7.94c-9.53,0-7.69,3.52-7.69,5.79s5.83,41.85,6.68,48.3C195.07,324.52,195.4,343,194.53,345.5Z"/><path class="cls-1" d="M250,637.71c1.78-.1,2.29-1.71,1.12-3.13a9.84,9.84,0,0,0-3.37-2.76c-7.11-3.2-14.29-6.28-21.47-9.32a48.77,48.77,0,0,0-5-1.51c-3.54.06-5,1.35-3.71,3.64,1.76,3.24,3.72,6.36,5.47,9.61a8.8,8.8,0,0,1,1.43,4.11c-.13,3.22-.15,6.66-1.27,9.6-3.06,8-6.62,15.88-10.06,23.77-2.32,5.32-4.83,10.56-7.06,15.91-.35.85.35,2.13.57,3.21a23.64,23.64,0,0,0,2.88-1.21c.41-.23.62-.83.91-1.27,8.26-12.78,16.31-25.71,24.89-38.28C239,644.76,242,638.16,250,637.71Z"/><path class="cls-1" d="M305.73,187.92c-2.05-4.57-3.37-9.69-8.84-11.82C294,175,292.18,175,290,177.3a20.63,20.63,0,0,0-6.21,12.8c-.89,11.72-.44,23.36,3.4,34.63,1.79,5.26,4.34,10,9.43,12.86,3.11,1.73,5.75,1.54,7.63-1.4,2-3.13,4-6.66,4.56-10.24,1.67-10.58,2.5-21.28-1.07-31.74A53.4,53.4,0,0,0,305.73,187.92Zm-9,20.07c0,13.26-1.26,21.5-3.77,21.5-1.59,0-5.8-4.76-6.95-21.49-1-14.13,1.25-21.34,3.76-21.5S296.72,194.73,296.72,208Z"/><path class="cls-1" d="M232.86,771.82a50.51,50.51,0,0,1-1.76-9.49c-.39-5.18-2.43-7.66-6.85-7.56-1.05.05-2.24-.19-3.12.23a12.41,12.41,0,0,0-2.69,2.37,14.87,14.87,0,0,0,2.67,2.43c.78.43,1.91.18,2.83.42.4.1,1,.67,1,1,0,4-.51,8.07-.11,12a32.58,32.58,0,0,0,14.52,23.26c2.13,1.4,2.13,3.16.37,4.92-1.42,1.42-2.87,2.8-4.19,4.32-.41.47-.42,1.31-.62,2a6.19,6.19,0,0,0,2.16.43c3.78-.78,9.61-8.63,9.91-11.57.49-4.78-1.71-8.6-4.4-12.24C239.4,780.11,234.34,777.29,232.86,771.82Z"/><path class="cls-1" d="M209.26,237.26c9.46-.59,18.91-1.48,28.38-1.95,1.38-.07,3.87.25,5.06,1.34.5.44-.19,3.17.2,3.68s1.46,2,2.64,1.14,1.09-2.88,1-3.48a5.27,5.27,0,0,0-4.87-5.06,32.48,32.48,0,0,0-6.53-.34c-8.76.56-30.56,1.51-31,2.35-1.71,2.35-1.49,2.68-2.4,3.82-2.25,2.81-5,2.69-8,2.28-1.08-.15-2.27.48-3.41.75,1.09.7,2.17,1.42,3.29,2.08.18.12.57-.11.77,0,1,.56,2.35.95,3,1.82,2.41,3.52,1.57,6.62-2.26,8.63-1.22.64-4.9.92-5.8,2.08s-2.4,3.72.63,4.53,13.33.05,16-.89,1.62-13.11,2.12-13.43a7.34,7.34,0,0,1,3.43-.67c8.59-.46,17.19-.74,25.79-1.11a5.43,5.43,0,0,0,2.55-.41,3.17,3.17,0,0,0,1.19-2.08c0-.26-1.1-.82-1.76-1.06a4.37,4.37,0,0,0-1.57,0c-8.94.48-17.88,1-26.82,1.46-1.67.1-4.3-.1-4.06-2.07C206.6,239,206,237.46,209.26,237.26Z"/><path class="cls-1" d="M121.1,220.51c3.21,0,32-2.67,38.26-3.11.82-.06,8.67-1.73-.92-2.72,0,0-36.44,2.83-37.5,3.17C120.19,218.09,117.89,220.51,121.1,220.51Z"/><path class="cls-1" d="M46.52,250.35c3.84,0,19.31-4.29,22.14-3.62,2.06-.09,3.67-.48,3.67-1.73s-1.54-2.07-3.33-2.44c-3.91-.81-5.92-2-11-2a55.32,55.32,0,0,0-12.35,1.87c-.66.15-7.83,2.37-6.32,4.28A8.4,8.4,0,0,0,46.52,250.35Z"/><path class="cls-1" d="M152.6,219.37c-7.5.85-15,1.73-23,2.66l-1.21,1.55c.85.38,1.74,1.16,2.54,1.08,13.51-1.45,16.23-1.86,29.73-3.45,1-.12,2.73-.85,2.72-1.26,0-2.39-1.83-1.62-3.27-1.46C154,219.17,158.69,218.68,152.6,219.37Z"/><path class="cls-1" d="M112,217.1a58.49,58.49,0,0,0-6.34.84c-1.82.41-3.89-4.17-5.43-3.7s-1.21,3.65-1,5.18.4,5.21,1.88,4.36c1-.57,2.15-2.29,3.86-2.75s4,.32,5.49.42a36.3,36.3,0,0,0,4.72-.48c1.45-.11,2.76-.37,2.39-2.24C117.29,217.42,113.85,216.9,112,217.1Z"/><path class="cls-1" d="M228.89,751.58a2.89,2.89,0,0,0,1.62-2.06,2.66,2.66,0,0,0-1.34-2.18,78.13,78.13,0,0,0-10.3-1.58c-.85-.07-2.53,1.24-2.55,2a3.78,3.78,0,0,0,1.84,2.94,37.39,37.39,0,0,0,6.11,1.59A23.54,23.54,0,0,0,228.89,751.58Z"/><path class="cls-1" d="M156.71,237.89a6.46,6.46,0,0,0-1.19,1.76c-.07.24.91,1.16,1.4,1.15,3.92-.08,7.85-.28,11.77-.57.39,0,1-.87,1-1.31s-.66-1.38-1-1.38C164.82,237.57,161,237.75,156.71,237.89Z"/><path class="cls-1" d="M293.28,625.05c-.82-.57-2.31-.17-3.5-.22.1,1.08.14,2.17.32,3.24.06.37.47.67.72,1a4.15,4.15,0,0,1-1.43.1c-2.87-.81-5.73-1.65-8.57-2.56q-15.54-5-31.06-10c-1.09-.36-11.68-3.73-12.77-3.77a56.07,56.07,0,0,1-11.5-5c-3.15-2.27-.52-8.87.7-8.87s3.33-1.69,3.15-2.45c0,0,.3-2.34-3.15-2.57s-6,3.79-8.29,7.12,1.87,9.93,6.1,11.91c1.56.73,10.22,4.22,13.07,5.25,3.75,1.36,10,3,11.42,3.63,7.36,3.33,14.73,6.66,22.19,9.76,5.82,2.41,6.3,2.73,6.11,9.26a39.07,39.07,0,0,1-4.66,17.95c-1.88,3.55-3.3,7.34-5,11-2.81,6-5.31,12.08-8.61,17.74-8.42,14.43-17.26,28.62-25.82,43a89.64,89.64,0,0,0-5.31,10.6c-.37.86.49,2.24.78,3.38a28.83,28.83,0,0,0,3.3-1.34c.38-.2.5-.9.74-1.37,2.13-4.14,4-8.41,6.41-12.4,11.5-19.37,23.12-38.66,34.7-58,7-11.7,14.11-23.34,21-35.12C296.85,631.82,296.53,627.34,293.28,625.05Z"/><path class="cls-1" d="M165.47,436.37c.74,2.37,1.8-.63,2.49-3s-.35-6.3-1.42-7.76-2.16-.21-1.85.94C164.69,426.58,164.73,434,165.47,436.37Z"/><path class="cls-1" d="M331.68,135c-27.16,36.18-28.65,37.13,10.75,49.4-39.38-11.91-41-9.42-23.82,47.58-16.86-56.88-18.76-55.44-49.44-5.24,30.74-50.36,30.74-50.36-23.65-64.2,51.32,13.2,51.32,13.2,37.11-43.91C300,174.42,300.3,174.52,331.68,135Z"/><path class="cls-1" d="M124.65,230.66a3.74,3.74,0,0,1,.89,1.9c.09.58,0,1.13.06,1.69l.05.84.12.83a13.28,13.28,0,0,0,.3,1.65,15.47,15.47,0,0,0,2.77,6,10.76,10.76,0,0,0,5.3,3.73A24.66,24.66,0,0,0,141,248c4.78,0,9.6-.13,14.42-.36,2.4-.13,4.81-.21,7.23-.22s7.31-.86,7.31.75-4.76,1.39-7.18,1.65-4.83.42-7.26.48c-4.85.14-9.7.28-14.59,0a32.77,32.77,0,0,1-7.48-1,14.07,14.07,0,0,1-6.58-4.23,15.48,15.48,0,0,1-3.47-7,15.85,15.85,0,0,1-.36-3.88,8.38,8.38,0,0,1,.2-1.93A2.92,2.92,0,0,1,124.65,230.66Z"/><path class="cls-1" d="M173.83,195.41c1.49.36,2.8.05.27,4.15s-2.08,8.71-4.75,8.71-1.56-.37-.93-6.43S170.82,194.68,173.83,195.41Z"/><path class="cls-1" d="M278.77,198.66c-.93-1.83-2.4-.53-4.17.22a67.19,67.19,0,0,1-7.84,3.1c-4.31,1.2-8.72,2.06-13.1,3a2.86,2.86,0,0,1-1.23-.08c-2.59-.59-5.2-1.8-7.76-1.69-7.36.32-14.68,1.37-22,1.74-6.12.31-12.18,3.23-18.39.53a1.12,1.12,0,0,0-.52-.06,13.23,13.23,0,0,0-9,3.17,4.45,4.45,0,0,1-3.35.52c-.35,0-.71-1.79-.57-2.68a6.32,6.32,0,0,1,6-5.7c1-.08,2.09.42,3.11.35s2.24-.38,2.45-.93a2.93,2.93,0,0,0-.61-2.71,29.63,29.63,0,0,0-5.34-2.43c-.78-.3-1.94,0-2.44-.54-2.65-2.6-5.94-2.54-9.15-2.16-1.27.16-3.16,1.22-3.46,2.26-1.18,4-3.66,7.12-6,10.4-1.12,1.58-.39,3.21,1,4.12,1.65,1.07,2.52-.29,3.22-1.61,1.1-2.1,2.17-4.23,3.38-6.27,1.11-1.88,2.2-3.91,4.8-4.06,1.59-.09,2.21.54,1.39,2.06a33.85,33.85,0,0,1-2.76,4.79,35.06,35.06,0,0,1-3.66,3.42c-.69.65-1.3,1.38-1.94,2.08.79.55,1.62,1.61,2.38,1.57,3.42-.19,5,2.29,6,4.61a90.56,90.56,0,0,1,5.1,14.57c.58,2.39,2.94,5.24,4.6,5.93s3-.31,2.64-2,.43-3.58-3.48-7.19a11.41,11.41,0,0,1-4-7.94c-.23-3.14.12-5.69,3.46-7.65,2.85-1.67,5.24-2.53,8.32-1.25a5,5,0,0,0,2.7.15c1.15-.23,2.2-1,3.35-1.12,4.35-.6,8.72-1.09,13.09-1.57q8.37-.9,16.77-1.72a5.57,5.57,0,0,1,1.51.31,7.08,7.08,0,0,1-1.43.48c-5.06.61-10.18.85-15.17,1.83-9.35,1.83-27,5.06-28.8,5.47s-2.61.26-2.59,2.1c0,.75.61,1.46,2.31,1.22,2.44.64,8.8.29,12.64-.25,9.48-1.33,18.91-3.37,28.44-4.09a120,120,0,0,0,16.57-2.67c.75,1.77,2.26,4.14,2.38,7,.25,5.62-.72,12.67,2.18,12.67s2.81-10.26,2.31-13.62a19.78,19.78,0,0,0-2.65-7c3.21-.83,5.91-1.65,7.64-2.3C272.06,205.15,279.72,200.54,278.77,198.66Z"/><path class="cls-1" d="M43,164.74c2.24-1.47,16.38-8.38,11.47-14.24s-13.6-2.84-16-2.72c-5.31.26-10.76,2-16.5,7.36s-.63,21.38,8.93,13.69c4.79-3.3,11.48-3.69,12.09-4.09"/><path class="cls-1" d="M46.58,250.35c3.84,0,19.31-4.29,22.14-3.62,2.06-.09,3.67-.48,3.67-1.73s-1.54-2.07-3.33-2.44c-3.91-.81-5.92-2-11.05-2a54.73,54.73,0,0,0-12.35,1.87c-.66.14-7.83,2.37-6.32,4.28a8.4,8.4,0,0,0,7.24,3.65"/><path class="cls-1" d="M40.86,185.71c-2.63-.25-4.27,2-2.68,3.42,1.41,1.28.81,3.42,3.75,2.54s2.49-.17,3.06-3-1.51-2.68-4.13-2.94"/><path class="cls-1" d="M4.48,176.65c-.7-3.9-1.42-7.88-.9-11.25,1.85-12,5.91-14.3,15-19.1,2.85-1.49,8-2.94,11.12-3.74,7.16-1.85,11.81-3.88,19.41-.29,1.48.69,14.21,4.34,14.87,1.84.5-1.87-3.1-11.37-12.19-15.3-7.7-3.33-15.12-4.13-22.41-2.19a62.08,62.08,0,0,0-9.66,3.53C13.06,133,4.84,138.2,2,145.94c-2.36,6.4-2.59,14.31-.8,22.59,1.17,5.38,1.93,8.73,3.09,14.1,0-.46.07-2.59.21-6"/><path class="cls-1" d="M78,155.24c2.36,4.72,2.36,9.5,0,10.68s-6.18-1.69-8.54-6.41-2.36-9.49,0-10.67,6.18,1.69,8.54,6.4"/><path class="cls-1" d="M92.42,199.19c2.08,3.41,4.58,3.72,4.58,4.37s-5,3.83-7.15-2.55c-1.28-3.78-1.89-4.72-2-5.41-.22-1.88,2.47.17,4.55,3.59"/><path class="cls-1" d="M47.74,199c0,.36-1.91.45-2.56.91a1.55,1.55,0,0,0-.66,1.71,9.89,9.89,0,0,0,2.38,4.24,5.22,5.22,0,0,0,.4.41,5.57,5.57,0,0,0,.45.35l1.15.87a14,14,0,0,1,2.23,2.09,4.17,4.17,0,0,1,.86,1.59,2.26,2.26,0,0,1,.08.53c0,.15,0,.18,0,.29a3.15,3.15,0,0,0,.09.58c.19.83-.53,1.38-1.14.49a3.91,3.91,0,0,1-.36-.77c0-.12-.09-.34-.12-.41a1.4,1.4,0,0,0-.09-.17,3.9,3.9,0,0,0-.73-.76c-.64-.52-1.41-1-2.19-1.53l-1.18-.77a6.23,6.23,0,0,1-.69-.52,8.38,8.38,0,0,1-.6-.59,11.22,11.22,0,0,1-1.75-2.64,7.12,7.12,0,0,1-.73-3.24,3.36,3.36,0,0,1,.59-1.81,3,3,0,0,1,1.52-1.05c1.11-.28,3-.15,3.06.2"/><path class="cls-1" d="M84.35,175.87c-6,6.32-20.08,10.12-23.53,10.32-1,.05-3.66.76-3.27,3,.32,1.81,1.78,1.28,3,1.15,10.31-1.08,29.11-5.62,33.11-12s.49-10.07-1.2-12.12c-1.9-2.32-5.61-4.2-6.76-3.56s-.28,2.11.31,4.38.54,6.53-1.67,8.84"/><rect class="cls-2" y="125.58" width="97" height="124.77"/></g></svg>