<svg xmlns="http://www.w3.org/2000/svg" viewBox="0 0 648.43 867.94"><defs><style>.cls-1{fill:#ed2024;}</style></defs><g id="kuvat"><path class="cls-1" d="M400.87,791.69c0,41.53,0,210.52,0,210.52,3.41.07,7.5,2,8.14,2.33,0,0-.08-170.1-.12-210.75C408.2,797.28,400.87,791.69,400.87,791.69Z"/><path class="cls-1" d="M409,614.83c-.08-73.12-.15-98.7-.23-169l-7.87-9.21c-.05,68.2,0,151.16,0,151.16C403.56,592.24,407.78,613.36,409,614.83Z"/><path class="cls-1" d="M408.86,265.14s-.49-277.93-.73-410.58l-7.26-3.33c-.15,128.7,0,398.45,0,398.45C403.31,255.8,408.86,265.14,408.86,265.14Z"/><path class="cls-1" d="M638.89,294c-2.46-.61-4.37-1.75-4.82-4.49a11.64,11.64,0,0,1-.32-2.55C634,282,612.29,272,607.43,269a8.67,8.67,0,0,1-2.64-2.78c-2.44-3.9-4.94-7.78-7-11.88a29.66,29.66,0,0,1-3.06-8.76c-.74-4.75-2.57-9.08-4.38-13.41C585,219.5,579.44,207,574.09,194.31a58.28,58.28,0,0,0-7.63-12.63,178.26,178.26,0,0,1-12.78-20c-.48-.84-1-1.66-1.47-2.5a3.29,3.29,0,0,0-2.5-1.76c-3.9-.67-5.22-3.64-9.11-4.34-1.79-.32-3.63-.4-5.41-.76-5.07-1-9.74-5.44-8.34-10.4,1.17-4.12,2.2-5.74,3.53-9.81.17-.51,4-7.39,4.88-10.1a11.08,11.08,0,0,0,.14-7.91,4.25,4.25,0,0,0-.61-1.13c-2.75-3.45-2.59-6.89-3-11.28a5.33,5.33,0,0,0-.65-1.81c-1.25-2.46-3.37-2.77-5.33-.8-1.66,1.68-1.8,1.72-3.47.54a10.31,10.31,0,0,1-1.85-3.1c.5-1.08,1.21-.18,1.81,0,1,.35,1.58-.23,2.28-.78,3.19-2.51,6-2.4,8.94.11A4,4,0,0,1,535,99.24c-.08,7.09,3.79,12.07,9.06,16.08a81.41,81.41,0,0,0,8.52,5.16,2.54,2.54,0,0,0,1.48.21,13.32,13.32,0,0,0,1.55-.43c3.7-.78,6.47.93,7.11,4.61a4.63,4.63,0,0,0,1.33,2.7,4.72,4.72,0,0,1,1.16,4.77c-.44,1.61-.57,3.31-1,4.95a4.22,4.22,0,0,0,1.12,4.17c2.35,2,2.94,4.92,4.16,7.51a57.28,57.28,0,0,1,4,11.82,18.43,18.43,0,0,0,3.93,7.66,162.68,162.68,0,0,1,13.42,19.28q20.39,33.39,41,66.69c2.64,4.3,5.35,8.55,7.85,12.93,1.21,2.13,8.74,8.7,8.74,15.12S641.22,294.54,638.89,294Zm-83.15-165c.24,0,.67-.07,1.08-.15a2.06,2.06,0,0,0,1.81-1.95c0-.53-.73-1.16-1.25-1.59a13.08,13.08,0,0,0-1.92-1.13c-2-1.15-2.83-.71-2.92,1.64C552.46,127.82,553.41,128.82,555.74,128.94Zm4.38,6.12a2,2,0,0,0,.69-.06,4.84,4.84,0,0,0,1.47-1c.11-.14-.41-.84-.71-1.24-.74-1-1.55-2-2.28-3-.54-.75-1.3-.86-1.76-.11-.69,1.1-1.29,2.32-.58,3.61A3.65,3.65,0,0,0,560.12,135.06ZM544,140.16a11.84,11.84,0,0,0,.16,1.45,1.79,1.79,0,0,0,2.33,1.54c1.21-.22,1.57-.88,1.25-2.39-.13-.62-.34-1.22-.46-1.84-.16-.78.14-2-1-1.95-.66,0-1.38.89-1.85,1.53A4.43,4.43,0,0,0,544,140.16Z"/><path class="cls-1" d="M391.74,701.59a2.47,2.47,0,0,1,.13-.86c1.48-2.92,1.71-6.14,2.43-9.25a18.53,18.53,0,0,0,.71-6.34,20.51,20.51,0,0,0-1-4c-.72-2.24-1.56-4.44-2.29-6.67a39.37,39.37,0,0,0-1.5-4.91c-4.77-10-7.41-20.56-10-31.22-2.14-8.77-3.25-17.73-5.15-26.53a64.38,64.38,0,0,0-3.31-11.41,29.13,29.13,0,0,0-5.08-7.37,85.42,85.42,0,0,0-7.13-7,63.69,63.69,0,0,1-9.88-11c-.9-1.32-2.22-2.33-3.22-3.59-1.73-2.18-3.68-4.27-4.92-6.72a24.12,24.12,0,0,1-2.07-7.38,4.88,4.88,0,0,0-3.3-4.22,60.56,60.56,0,0,1-5.64-3.08,13.12,13.12,0,0,0-6.7-2c-1.83,0-3.66.06-5.48,0-2.55-.12-2.27-4.74-1.18-7a58.22,58.22,0,0,1,4.37-7.09c1.36-2.05,3.07-3.91,4.21-6.07a84.72,84.72,0,0,1,9.15-13.21c.33-.42.87-.77,1-1.25,1.21-4.21,5.05-6.57,7.09-10.21s4.22-7.25,6.62-10.67c5.67-8.09,11.49-16.07,17.29-24.07,2.83-3.92,5.56-7.92,8.65-11.62,3.79-4.53,9.57-11.14,11.28-12.22a1.63,1.63,0,0,1,2.32.34,4.14,4.14,0,0,1,.25,2.11c0,.29.78,5.36-1.53,9.71a6.84,6.84,0,0,0-.8,4,11.07,11.07,0,0,1-1.69,7,31.86,31.86,0,0,0-3.05,7.4c-1.3,4.2-2.34,8.48-3.5,12.72s-1.37,8.9-1.57,13.41c-.09,2-.11,4.08,0,6.12.33,6.82-1.46,13.15-4.18,19.32a45.75,45.75,0,0,0-3.86,12.56,13.73,13.73,0,0,1-2.27,6.29c-.93,1.31-1.6,2.8-2.48,4.15-.76,1.17-.85,2.18.36,3.07,5,3.69,7.88,9.25,11.87,13.84a53.89,53.89,0,0,1,8.6,13.14c.82,1.83,10.23,15.43,14.44,28.74s6.67,39.82,9.24,47.88,1.67,23.36,6.49,27.5a10.28,10.28,0,0,1,3.76,5.45,7.88,7.88,0,0,0,3.68,4.66,29,29,0,0,1,5.7,5.14c1.92,2.17,1.68,4-.49,5.85a17.8,17.8,0,0,1-4,2.73c-3.28,1.53-6.67,2.82-10,4.23a3.29,3.29,0,0,1-4.26-1.22c-3.4-4.53-9.49-3.64-14.77-5.12C392.65,705,391.68,703.82,391.74,701.59Z"/><path class="cls-1" d="M502.39,374.38a43.26,43.26,0,0,1-2.66,13.33c-1.54,4.09-12.3,6.91-15.62,4a11.37,11.37,0,0,1-3.09-4.39c-2-5.43-5.61-9.84-9.09-14.25-2.47-3.12-6.15-5-9.78-6.66-9.28-4.19-15.87-6.61-25.19-10.71-.89-.39-1.78-.75-2.65-1.18a17.48,17.48,0,0,0-8.25-2.19c-3.83.06-6.41-2.88-6.12-6.75a7.14,7.14,0,0,0-1.61-5,71.89,71.89,0,0,1-4.53-6.25,22.27,22.27,0,0,1-2.76-6.78,25.25,25.25,0,0,0-4.07-9.71c-.35-.53-.77-1-1.13-1.56-2-3-2-4.48.37-7.22,2.55-2.9,3.41-7,6.11-9.79,1.37-1.41,1.32-1.37.18-2.85a25.41,25.41,0,0,1-3.5-5c-1.57-3.6-4.49-5.94-7.13-8.59-2.18-2.2-4.29-4.48-6.33-6.81-2.25-2.57-4.4-5.24-6.58-7.86-1.64-2-3.86-2.52-6.29-2.78-5.37-.58-4.89-.36-9,2.78-.34.25-.62.59-.95.86a1.74,1.74,0,0,1-2.58.06c-.82-.88-.42-1.82.27-2.6,1.57-1.76,1.43-1.51,3-3.3,4.5-5.24,1.93-10.7-1.45-14a20,20,0,0,0-1.67-1.51c-3.25-2.62-4.61-8.4-4.51-12.49s1.94-7.78,2.2-11.84a14.8,14.8,0,0,1,1.08-4,5,5,0,0,1,4.2-3.49,23.71,23.71,0,0,0,8.87-3.65c3.1-2,4.46-1.76,6.92,1,.43.48.82,1,1.26,1.47a4.45,4.45,0,0,1,1,4.76,103.23,103.23,0,0,0-1.49,14.13c.17,7.07,3.11,12.87,6,19.25A165.86,165.86,0,0,0,406,272.18a59.15,59.15,0,0,0,10.17,12c7.4,6.73,13.92,14.3,21,21.32,7.62,7.56,15,15.4,22.62,22.93a73.33,73.33,0,0,0,9.31,7.39,11.72,11.72,0,0,0,4.52,1.44c1.68.31,3.42.21,5.12.45a13.92,13.92,0,0,1,8.06,3.61c3.46,3.35,7.26,6.34,9.86,10.54a22.11,22.11,0,0,1,3.45,11.86c0,2.36,0,4.6,1.47,6.75C502.33,371.6,502.2,373.33,502.39,374.38Z"/><path class="cls-1" d="M18.79,303.92c3.22,0,6.45.11,9.67,0,2.45-.1,4.89-.52,7.33-.82a36.32,36.32,0,0,1,4.13-.49c9.67-.05,19.33,0,29-.06,5.25,0,10.51-.24,15.76-.36a10.87,10.87,0,0,1,1.61,0c8.49,1.16,17.1.87,25.59,2.06a35.4,35.4,0,0,0,6.43.15c9-.45,18,.39,27,1.2,9.4.85,18.84,1.55,28.27,1.74,10.84.22,21.69-.4,32.54-.29,14.06.14,28.13.64,42.19,1a30.63,30.63,0,0,0,15.8-3.6,51.26,51.26,0,0,1,10.67-4.43,49.35,49.35,0,0,1,10.2-1.15c2.9-.17,5.67-.29,8.4-1.71,1.72-.9,3.94-1,6-1.12a6.22,6.22,0,0,0,4.9-2.62c1.34-1.81,2.75-3.58,4.22-5.28.35-.4,1.06-.49,1.6-.72a15.18,15.18,0,0,1,.49,2c0,.26-.23.6-.44.84q-3.18,3.83-6.4,7.63a6.71,6.71,0,0,1-3.87,2.12c-1.36.31-2.68.77-4,1.12-4.07,1.05-5.12,3.06-5,7.73,0,.52.39,1.05.34,1.55s-.4,1.56-.66,1.57a3.25,3.25,0,0,1-1.87-.68c-.4-.29-.52-.93-.85-1.34a17.43,17.43,0,0,0-2.11-2.41c-1.23-1.08-1.87-.88-2.79.52-1.12,1.69-2.29,3.35-3.41,5-1.49,2.25-1.42,4.66-.64,7.12a23.84,23.84,0,0,0,1,2.71,6.85,6.85,0,0,1-.49,7.26c-1.79,2.64-3.55,4.93-7,5.58-8.22,1.53-16.46,1.36-24.72.74-6.1-.46-12.22-.9-18.28-1.7-9.56-1.27-19.17-2.4-28.33-5.74a90.57,90.57,0,0,0-9.57-2.83A76.15,76.15,0,0,1,175.24,320c-2.49-1.26-4.51-3.54-6.55-5.55a3.48,3.48,0,0,1-.55-2.67c.2-1.34-.45-1.75-1.48-2a6.91,6.91,0,0,0-1.28-.17c-3.75-.18-7.51-.33-11.26-.54-.91-.06-1.38.18-1.5,1.14-.32,2.39-.87,4.67-3.14,6.06a12.66,12.66,0,0,1-8.58,2,134.17,134.17,0,0,1-21.09-4.41c-3-.9-6-1.79-8.92-2.7a6.23,6.23,0,0,1-3.57-2.57,4.37,4.37,0,0,0-2.23-1.65c-3.2-.92-6.41-1.66-9.82-1a35.16,35.16,0,0,1-6.4.64,55.75,55.75,0,0,0-11.43,1.62,3.17,3.17,0,0,0-2.56,2.11,11.55,11.55,0,0,1-1.09,2.33A4.52,4.52,0,0,1,72,314.37a92,92,0,0,1-9.13,3,17.48,17.48,0,0,1-4.75.14c-1.17,0-2.34-.33-3.51-.32a4.39,4.39,0,0,0-3.71,2.05,51,51,0,0,1-5.75,6,4,4,0,0,1-2.37.81,1.71,1.71,0,0,1-1.52-2.7,12.55,12.55,0,0,1,2-2.56c5.22-5,9.46-11.1,16.15-14.45.24-.12.39-.44.57-.66-.24-.15-.49-.42-.74-.41-1.82,0-3.65.08-5.48.11-3.43.07-6.87.17-10.31.16a35.86,35.86,0,0,0-9.57.95A14.78,14.78,0,0,1,30,307c-7.73,0-15.47,0-23.2,0-.54,0-1.08,0-1.61,0-1-.05-1.77-.51-1.75-1.51s.87-1.46,1.81-1.48c2.46-.05,4.94,0,7.41,0h6.12Z"/><path class="cls-1" d="M300.27,241.24a6,6,0,0,0,1.36,1.73,40.15,40.15,0,0,1,10,9.38,23.19,23.19,0,0,1,2.62,4.38,2.46,2.46,0,0,1-.35,2.27,2.41,2.41,0,0,1-2.26-.23,28.86,28.86,0,0,1-3.24-3.47c-1.05-1.19-2-2.49-3.11-3.6a3,3,0,0,0-3.27-.71,7.17,7.17,0,0,1-2.53.28c-2.53-.11-2.76-.37-3.12-3a6.24,6.24,0,0,0-.22-.85,3.76,3.76,0,0,0-1,.58c-4.41,5-7.94,10.64-11.55,16.22a11.76,11.76,0,0,1-1.66,2.36,5.79,5.79,0,0,1-2.62,1.66A13.24,13.24,0,0,1,267.39,265a5.12,5.12,0,0,1-1.44-5.87c.81-2.2,1.94-4.29,2.87-6.45,1.43-3.34,2.87-6.67,4.17-10.06a7.06,7.06,0,0,0,.36-3.16c-.43-4.16-.7-8.35-2.15-12.34-.22-.6-.36-1.23-.56-1.84a3.28,3.28,0,0,1,1.34-3.95,16.49,16.49,0,0,1,2.15-1.4,12.71,12.71,0,0,0,5-4.45c1.16-1.84,2.13-1.91,3.43-.23A32.66,32.66,0,0,1,285,219.4c.88,1.58,1.81,2.13,3.34,1.92s2-1.37,2.19-2.74c.35-3.19,2-5.84,3.38-8.64.85-1.82,2.1-3.43,2.09-5.65a1.39,1.39,0,0,1,2.57-.74,27.59,27.59,0,0,1,3,4.57,107.65,107.65,0,0,0,10.71,17.19c2.87,3.62,5.77,7.22,8.9,10.6a31.54,31.54,0,0,0,6.25,5,12,12,0,0,0,4.86,1.5c2.33.29,4.71.16,7.07.26,3.71.15,4.65,1.71,2.9,4.92a5.3,5.3,0,0,0-.69,3.64,11.48,11.48,0,0,1-.24,4.44c-.95,3.87-3.87,4.81-6.87,2.18a9.23,9.23,0,0,0-4.6-2.08c-.68-.13-1.09.06-.74.82.57,1.27,1.21,2.51,1.78,3.79.75,1.64,1.79,3.14,1.75,5.11,0,.69.79,1.43,1.31,2.09.72.92,1.58,1.75,2.23,2.72a1.52,1.52,0,0,1-.26,1.42,1.68,1.68,0,0,1-1.42.34,4,4,0,0,1-1.5-1.14c-2.79-3.12-5.58-6.24-8.31-9.4-1.82-2.12-3.56-4.3-5.31-6.48-.8-1-1.55-2-2.29-3.08-1.36-1.92-2.58-3.94-4.06-5.76-2-2.41-4.1-4.68-6.2-7a6.8,6.8,0,0,0-1.67-1.46C302.31,236.22,300.36,237.4,300.27,241.24Z"/><path class="cls-1" d="M425.15,204.29l-6-.59a3.92,3.92,0,0,1-3.25-2.32c-.29-.57-.65-1.11-1-1.67-1.92-3.58-1.05-7,2.48-9.12,8.09-4.87,12.71-9.13,21.45-12.81a160.43,160.43,0,0,0,19.6-10.4,115.42,115.42,0,0,1,12-6.23,33.41,33.41,0,0,1,8-2.21,63,63,0,0,0,16.22-5.07c4.83-2.24,9.24-5.4,13.76-8.27,1.71-1.09,3.17-2.56,4.79-3.79,1.8-1.35,3.2-1,4.13,1,.27.58.44,1.21.73,1.78,2.52,4.87,1.13,9.88-3.53,12.67-3.31,2-6.58,4.05-9.93,6a63.58,63.58,0,0,1-20.75,7.56c-8.07,1.38-14.8,5.49-21.78,9.21a2.78,2.78,0,0,0-1.22,1c-2,4.06-5.83,6.05-9.36,8.48a40.79,40.79,0,0,0-8,6.95C437.88,203.12,433.71,203.93,425.15,204.29Z"/><path class="cls-1" d="M532.85,346.19c-3.08-.38-6.74-.53-10,2-1,.75-2.37.94-3.59,1.36-2.15.75-2.5,1.27-2,3.53.47,2-.46,1.1,0,3.09a10.27,10.27,0,0,1,.07,3.5,2.35,2.35,0,0,1-2.39,2.18c-1.51.08-2.13-.84-2.41-2.08a7.22,7.22,0,0,1-.36-2.84c.81-3.84-1.3-6.83-2.86-9.91-1.13-2.21-1-3.21,1.59-3.21,3.81,0,7-1.66,10.37-3,9.81-4,17.25-11.12,24.94-18a113.45,113.45,0,0,1,21.91-15.74c3.29-1.76,6.28-4.09,9.45-6.08,3.8-2.39,7.42-5.1,11.74-6.62a68.88,68.88,0,0,0,6.41-3,5.07,5.07,0,0,1,1.47-.62,4.35,4.35,0,0,1,1.46.31c-.17.56,1.35,3.92,1.13,4.46-.07.17-3.87,2.8-4,2.95-3,2.9-2.5,3.21-5.46,6.15a5.81,5.81,0,0,0-.95,1.67c-5.26,10.77-12.3,20.13-22,27.32-2.14,1.59-4.68,2.63-6.91,4.11-4.62,3.06-9.86,4.68-14.91,6.75C541.66,346.13,537.6,346.08,532.85,346.19Z"/><path class="cls-1" d="M415.93,741.25c.15,2.25.42,4.92.47,7.6a7.72,7.72,0,0,1-.65,3.71,5.85,5.85,0,0,0-.4,4.33,13.92,13.92,0,0,1,.47,2.84c0,2.2-1.16,2.92-3.1,2-.1,0-.18-.12-.28-.17-2.6-1.33-2.69-1.37-4,1.2a13,13,0,0,0-1.47,4.52,6.62,6.62,0,0,0,3,6,3.23,3.23,0,0,1,.08,5c-1.37,1.27-3.18,1.15-4.41-.65a28.14,28.14,0,0,1-3.54-6.47,50.3,50.3,0,0,1-2.9-14.46c-.1-2.33.55-4.69.44-7-.32-7-.33-13.94-1.78-20.81a11.9,11.9,0,0,1,.79-8.18c1.42-2.72,3-3.39,5.77-2.24a9.54,9.54,0,0,1,2.67,1.72,24,24,0,0,1,6.54,9.43C415,733.22,416.7,736.78,415.93,741.25Z"/><path class="cls-1" d="M343.82,223.62a16.46,16.46,0,0,0-3.36-11.46,11.84,11.84,0,0,1-2.72-7.38,5.11,5.11,0,0,0-3.36-5.18c-3.24-1.4-5.77-3.95-8.07-6.72-3.05-3.68-2.35-8.14-.76-11.79a3.53,3.53,0,0,1,3.33-2.09,13.59,13.59,0,0,1,12.91,7.39,7.51,7.51,0,0,1,.78,5.28c-.37,1.46-.71,2.92-1,4.39-.5,2.79-.07,5.22,2.27,7.23a11.49,11.49,0,0,1,3.11,4,88.29,88.29,0,0,1,4.73,12.93c.57,2.33-.17,5.07-.71,7.55a4.5,4.5,0,0,1-2.33,2.4c-2.11,1-4.28.54-4.71-2.42a21.13,21.13,0,0,1-.25-2.23C343.69,224.91,343.78,224.27,343.82,223.62Z"/><path class="cls-1" d="M308.27,200.21c-1.08-.34-1.7-.51-2.3-.73a66.14,66.14,0,0,0-14.09-3.27,30.29,30.29,0,0,0-5.13-.2c-3.86.16-7.71.48-11.57.68-1.6.09-3.41.26-4.24-1.52-.92-2,.61-3.22,1.85-4.39a6.66,6.66,0,0,1,2.41-1.52,45.1,45.1,0,0,1,19-2.14,25.36,25.36,0,0,1,11.32,4.31c.6.4,1.43,1,1.5,1.58.19,1.57,1.25,2,2.41,2.67a2.14,2.14,0,0,1,1,3A8,8,0,0,1,308.27,200.21Z"/><path class="cls-1" d="M425.94,387.47a7.63,7.63,0,0,1,.17-2c.22-.65.7-1.56,1.21-1.66a3.15,3.15,0,0,1,2.26.65A6.55,6.55,0,0,1,431,386.6c1.44,2.73,2.42,5.74,5.17,7.61a2,2,0,0,1,.56,2.61,2.11,2.11,0,0,1-2.44,1.11,9.6,9.6,0,0,1-8.18-8.29A20.43,20.43,0,0,1,425.94,387.47Z"/><path class="cls-1" d="M258.45,227.19c-.17,1.49-.28,3-.52,4.46a18.92,18.92,0,0,0,0,5.72,24.21,24.21,0,0,1-.25,6.35,5.91,5.91,0,0,1-1.43,2.44,1.21,1.21,0,0,1-1.12.22,1.12,1.12,0,0,1-.29-1,5.17,5.17,0,0,0-.51-5.2,4.38,4.38,0,0,1-.21-4.55,12.85,12.85,0,0,0,1.09-7.8,3.56,3.56,0,0,1,1.75-3.51,1.59,1.59,0,0,1,1.16-.15c.17,0,.33.53.33.81,0,.75-.11,1.5-.17,2.24Z"/><path class="cls-1" d="M17.05,315.88a26,26,0,0,0-6.34.93c-3,.89-6.33.44-9.52.39-.44,0-1.23-1-1.19-1.53s.9-1,1.42-1.42a.62.62,0,0,1,.31,0c6.18-.06,12.36-.14,18.54-.16.87,0,2.4-.42,2.4.82,0,1.47-1.59.92-2.56,1S18.41,315.88,17.05,315.88Z"/><path class="cls-1" d="M11.77,324.68,8.56,324c.57-1.58,2.09-1.07,3.19-1.37,1.94-.52,3.94-.86,5.91-1.23a2.28,2.28,0,0,1,.89.2c-.09.28-.09.64-.28.83C16.5,324.24,14.21,324.54,11.77,324.68Z"/><path class="cls-1" d="M430.48,60C411.31,97.42,410,98.54,453.8,102.8,410.1,98.86,409,101.39,440.89,150c-31.48-48.51-33.09-46.88-52.46,3.82,19.39-50.85,19.39-50.85-40.31-54,56.36,3.05,56.36,3.05,27.56-46.12C407.48,101.15,407.77,101.2,430.48,60Z"/></g></svg>